name Walk10.mot
datacolumns 19
datarows 27
range 1.39000000 1.52000000
endheader

                time	   L_ground_force_vx	   L_ground_force_vy	   L_ground_force_vz	   L_ground_force_px	   L_ground_force_py	   L_ground_force_pz	   R_ground_force_vx	   R_ground_force_vy	   R_ground_force_vz	   R_ground_force_px	   R_ground_force_py	   R_ground_force_pz	   L_ground_torque_x	   L_ground_torque_y	   L_ground_torque_z	   R_ground_torque_x	   R_ground_torque_y	   R_ground_torque_z	
          1.39000000	          7.84586809	        144.87496244	        -16.69800910	         -0.56388099	          0.00000000	          0.05820479	         -0.00000017	          0.00000243	          0.00000011	          0.00000000	          0.00000000	          0.00000000	          0.00000000	          1.71104299	          0.00000000	          0.00000000	          0.00000001	          0.00000000	
          1.39500000	          3.91908338	        211.81322334	        -19.94169026	         -0.51498564	          0.00000000	          0.04097908	         -0.00000021	          0.00000259	          0.00000012	          0.00000000	          0.00000000	          0.00000000	          0.00000000	          2.15038226	          0.00000000	          0.00000000	          0.00000002	          0.00000000	
          1.40000000	         -1.94209884	        280.92352227	        -23.27651173	         -0.46874534	          0.00000000	          0.02480042	         -0.00000025	          0.00000253	          0.00000011	          0.00000000	          0.00000000	          0.00000000	          0.00000000	          2.62637360	          0.00000000	          0.00000000	          0.00000003	          0.00000000	
          1.40500000	         -9.83013022	        348.87987212	        -26.37129692	         -0.42761254	          0.00000000	          0.01052060	         -0.00000028	          0.00000212	          0.00000009	          0.00000000	          0.00000000	          0.00000000	          0.00000000	          3.10603306	          0.00000000	          0.00000000	          0.00000004	          0.00000000	
          1.41000000	        -19.48135809	        413.44236277	        -28.81447291	         -0.39282152	          0.00000000	         -0.00146367	         -0.00000029	          0.00000122	          0.00000004	         -0.00000000	          0.00000000	         -0.00000000	          0.00000000	          3.54484366	          0.00000000	          0.00000000	          0.00000005	          0.00000000	
          1.41500000	        -30.28725198	        473.42799188	        -30.22945180	         -0.36465869	          0.00000000	         -0.01109916	         -0.00000027	         -0.00000033	         -0.00000004	         -0.00000000	          0.00000000	         -0.00000000	          0.00000000	          3.89449277	          0.00000000	          0.00000000	          0.00000005	          0.00000000	
          1.42000000	        -41.46716275	        528.31429142	        -30.36667153	         -0.34277427	          0.00000000	         -0.01855251	         -0.00000021	         -0.00000271	         -0.00000015	         -0.00000000	          0.00000000	         -0.00000000	          0.00000000	          4.11377366	          0.00000000	          0.00000000	          0.00000006	          0.00000000	
          1.42500000	        -52.32382592	        578.06026011	        -29.14567942	         -0.32641413	          0.00000000	         -0.02411707	         -0.00000009	         -0.00000609	         -0.00000032	         -0.00000000	          0.00000000	         -0.00000000	          0.00000000	          4.17840494	          0.00000000	          0.00000000	          0.00000006	          0.00000000	
          1.43000000	        -62.47064535	        622.89644591	        -26.64951986	         -0.31460466	          0.00000000	         -0.02814142	          0.00000012	         -0.00001061	         -0.00000053	         -0.00000001	          0.00000000	         -0.00000000	          0.00000000	          4.08646865	          0.00000000	          0.00000000	          0.00000006	          0.00000000	
          1.43500000	        -71.84906176	        663.06358323	        -23.08543896	         -0.30630378	          0.00000000	         -0.03097843	          0.00000042	         -0.00001635	         -0.00000080	         -0.00000001	          0.00000000	         -0.00000000	          0.00000000	          3.85802094	          0.00000000	          0.00000000	          0.00000004	          0.00000000	
          1.44000000	        -80.50878020	        698.60362440	        -18.75517257	         -0.30051777	          0.00000000	         -0.03295185	          0.00000083	         -0.00002328	         -0.00000113	         -0.00000001	          0.00000000	         -0.00000000	          0.00000000	          3.53038669	          0.00000000	          0.00000000	          0.00000001	          0.00000000	
          1.44500000	        -88.36193382	        729.34952449	        -14.02095835	         -0.29636675	          0.00000000	         -0.03434092	          0.00000138	         -0.00003121	         -0.00000150	         -0.00000002	          0.00000000	         -0.00000001	          0.00000000	          3.15020889	          0.00000000	          0.00000000	         -0.00000004	          0.00000000	
          1.45000000	        -95.12718530	        755.10708651	         -9.22643577	         -0.29310550	          0.00000000	         -0.03538044	          0.00000206	         -0.00003973	         -0.00000189	         -0.00000002	          0.00000000	         -0.00000001	          0.00000000	          2.76230819	          0.00000000	          0.00000000	         -0.00000011	          0.00000000	
          1.45500000	       -100.48454822	        775.84430852	         -4.60988760	         -0.29013377	          0.00000000	         -0.03626208	          0.00000287	         -0.00004813	         -0.00000226	         -0.00000002	          0.00000000	         -0.00000001	          0.00000000	          2.39870994	          0.00000000	          0.00000000	         -0.00000020	          0.00000000	
          1.46000000	       -104.25551097	        791.75255779	         -0.28140752	         -0.28700901	          0.00000000	         -0.03713141	          0.00000377	         -0.00005528	         -0.00000256	         -0.00000002	          0.00000000	         -0.00000001	          0.00000000	          2.07416165	          0.00000000	          0.00000000	         -0.00000033	          0.00000000	
          1.46500000	       -106.43517072	        803.20273951	          3.74119630	         -0.28345700	          0.00000000	         -0.03808445	          0.00000472	         -0.00005961	         -0.00000272	         -0.00000002	          0.00000000	         -0.00000001	          0.00000000	          1.78881125	          0.00000000	          0.00000000	         -0.00000048	          0.00000000	
          1.47000000	       -107.12835473	        810.72139897	          7.47473609	         -0.27936938	          0.00000000	         -0.03916819	          0.00000562	         -0.00005902	         -0.00000263	         -0.00000002	          0.00000000	         -0.00000000	          0.00000000	          1.53406468	          0.00000000	          0.00000000	         -0.00000066	          0.00000000	
          1.47500000	       -106.51361076	        814.98313947	         10.92051398	         -0.27478469	          0.00000000	         -0.04038447	          0.00000633	         -0.00005081	         -0.00000216	         -0.00000001	          0.00000000	         -0.00000000	          0.00000000	          1.29912595	          0.00000000	          0.00000000	         -0.00000086	          0.00000000	
          1.48000000	       -104.81941608	        816.74302189	         14.05101675	         -0.26985282	          0.00000000	         -0.04169985	          0.00000665	         -0.00003175	         -0.00000117	          0.00000001	          0.00000000	          0.00000000	          0.00000000	          1.07707071	          0.00000000	          0.00000000	         -0.00000106	          0.00000000	
          1.48500000	       -102.25659428	        816.72048416	         16.84069297	         -0.26478481	          0.00000000	         -0.04306006	          0.00000633	          0.00000189	          0.00000052	          0.00000003	          0.00000000	          0.00000001	          0.00000000	          0.87061214	          0.00000000	          0.00000000	         -0.00000124	          0.00000000	
          1.49000000	        -98.95620366	        815.51410832	         19.30283775	         -0.25980090	          0.00000000	         -0.04440511	          0.00000506	          0.00005412	          0.00000310	          0.00000006	          0.00000000	          0.00000002	          0.00000000	          0.69320098	          0.00000000	          0.00000000	         -0.00000138	          0.00000000	
          1.49500000	        -94.97696738	        813.56406413	         21.49831918	         -0.25509178	          0.00000000	         -0.04568171	          0.00000244	          0.00012888	          0.00000673	          0.00000010	          0.00000000	          0.00000004	          0.00000000	          0.56281650	          0.00000000	          0.00000000	         -0.00000142	          0.00000000	
          1.50000000	        -90.36693688	        811.14368991	         23.51158547	         -0.25079613	          0.00000000	         -0.04685022	         -0.00000193	          0.00022957	          0.00001156	          0.00000016	          0.00000000	          0.00000005	          0.00000000	          0.49101785	          0.00000000	          0.00000000	         -0.00000131	          0.00000000	
          1.50500000	        -85.21194704	        808.36702310	         25.42203830	         -0.24699193	          0.00000000	         -0.04788771	         -0.00000852	          0.00035827	          0.00001768	          0.00000022	          0.00000000	          0.00000007	          0.00000000	          0.47570213	          0.00000000	          0.00000000	         -0.00000097	          0.00000000	
          1.51000000	        -79.63777949	        805.19810991	         27.29583768	         -0.24369661	          0.00000000	         -0.04878798	         -0.00001774	          0.00051478	          0.00002503	          0.00000029	          0.00000000	          0.00000010	          0.00000000	          0.50485085	          0.00000000	          0.00000000	         -0.00000033	          0.00000000	
          1.51500000	        -73.79120606	        801.47685941	         29.18053199	         -0.24087660	          0.00000000	         -0.04955690	         -0.00002994	          0.00069535	          0.00003341	          0.00000036	          0.00000000	          0.00000012	          0.00000000	          0.56231415	          0.00000000	          0.00000000	          0.00000071	          0.00000000	
          1.52000000	        -67.81725472	        796.96543125	         31.09863640	         -0.23846204	          0.00000000	         -0.05020787	         -0.00004526	          0.00089118	          0.00004235	          0.00000043	          0.00000000	          0.00000014	          0.00000000	          0.63309949	          0.00000000	          0.00000000	          0.00000225	          0.00000000	
